PathFileType	4	(X/Y/Z)	C:\Users\italobelli\Desktop\GitHub\PTbot_officialCBL\Personal_Results\SHRUG02_noisy1.trc
DataRate	CameraRate	NumFrames	NumMarkers	Units	OrigDataRate	OrigDataStartFrame	OrigNumFrames
112.250000	112.250000	29	9	m	112.250000	394	450
Frame#	Time		gu		centelbow		EpL		centpxt8		centijc7		ij		ts		aa		ai
			X1	Y1	Z1	X2	Y2	Z2	X3	Y3	Z3	X4	Y4	Z4	X5	Y5	Z5	X6	Y6	Z6	X7	Y7	Z7	X8	Y8	Z8	X9	Y9	Z9

394	3.5011	-0.076279	-0.011878	0.16656	-0.11539	-0.26265	0.21251	-0.093512	-0.2579	0.23571	-0.046816	-0.15316	-0.008669	-0.046816	0.031938	-0.008669	0	0	0	-0.13675	0.030877	0.058285	-0.1025	0.027095	0.17246	-0.15945	-0.080014	0.066864
395	3.51	-0.076242	-0.011858	0.1666	-0.11559	-0.26253	0.21265	-0.093701	-0.25779	0.23585	-0.046816	-0.15316	-0.008669	-0.046816	0.031938	-0.008669	0	0	0	-0.13673	0.030896	0.058312	-0.10246	0.027133	0.17248	-0.15944	-0.079993	0.066903
396	3.5189	-0.076208	-0.011838	0.16663	-0.11578	-0.26242	0.21279	-0.093894	-0.25768	0.23598	-0.046816	-0.15316	-0.008669	-0.046816	0.031938	-0.008669	0	0	0	-0.13672	0.030916	0.058336	-0.10244	0.027171	0.1725	-0.15942	-0.079971	0.06694
397	3.5278	-0.076177	-0.011815	0.16667	-0.11598	-0.2623	0.21294	-0.094089	-0.25757	0.23613	-0.046816	-0.15316	-0.008669	-0.046816	0.031938	-0.008669	0	0	0	-0.13671	0.030937	0.058358	-0.10241	0.027209	0.17252	-0.15941	-0.079949	0.066976
398	3.5367	-0.076149	-0.011792	0.1667	-0.11618	-0.26219	0.21308	-0.094288	-0.25745	0.23627	-0.046816	-0.15316	-0.008669	-0.046816	0.031938	-0.008669	0	0	0	-0.13669	0.030958	0.058378	-0.10238	0.027248	0.17254	-0.15941	-0.079924	0.067009
399	3.5457	-0.076124	-0.011767	0.16673	-0.11638	-0.26207	0.21323	-0.094489	-0.25734	0.23641	-0.046816	-0.15316	-0.008669	-0.046816	0.031938	-0.008669	0	0	0	-0.13668	0.030981	0.058396	-0.10236	0.027288	0.17256	-0.1594	-0.079899	0.067041
400	3.5546	-0.076102	-0.01174	0.16676	-0.11659	-0.26194	0.21337	-0.094694	-0.25722	0.23655	-0.046816	-0.15316	-0.008669	-0.046816	0.031938	-0.008669	0	0	0	-0.13666	0.031005	0.058412	-0.10234	0.027327	0.17257	-0.15939	-0.079873	0.067071
401	3.5635	-0.076083	-0.011713	0.16679	-0.11679	-0.26182	0.21352	-0.094901	-0.2571	0.2367	-0.046816	-0.15316	-0.008669	-0.046816	0.031938	-0.008669	0	0	0	-0.13665	0.03103	0.058426	-0.10231	0.027367	0.17258	-0.15939	-0.079845	0.067099
402	3.5724	-0.076067	-0.011684	0.16682	-0.11701	-0.26169	0.21367	-0.095112	-0.25698	0.23684	-0.046816	-0.15316	-0.008669	-0.046816	0.031938	-0.008669	0	0	0	-0.13664	0.031055	0.058438	-0.1023	0.027408	0.17259	-0.15939	-0.079816	0.067126
403	3.5813	-0.076054	-0.011654	0.16684	-0.11722	-0.26157	0.21381	-0.095325	-0.25686	0.23699	-0.046816	-0.15316	-0.008669	-0.046816	0.031938	-0.008669	0	0	0	-0.13663	0.031082	0.058448	-0.10228	0.027449	0.1726	-0.15939	-0.079786	0.067151
404	3.5902	-0.076044	-0.011622	0.16687	-0.11743	-0.26144	0.21396	-0.095541	-0.25673	0.23714	-0.046816	-0.15316	-0.008669	-0.046816	0.031938	-0.008669	0	0	0	-0.13661	0.031109	0.058457	-0.10226	0.02749	0.17261	-0.15939	-0.079755	0.067174
405	3.5991	-0.076037	-0.01159	0.16689	-0.11765	-0.26131	0.21411	-0.09576	-0.25661	0.23729	-0.046816	-0.15316	-0.008669	-0.046816	0.031938	-0.008669	0	0	0	-0.1366	0.031137	0.058464	-0.10225	0.027531	0.17262	-0.15939	-0.079723	0.067195
406	3.608	-0.076032	-0.011556	0.16692	-0.11787	-0.26118	0.21426	-0.095981	-0.25648	0.23744	-0.046816	-0.15316	-0.008669	-0.046816	0.031938	-0.008669	0	0	0	-0.13659	0.031166	0.058468	-0.10223	0.027573	0.17262	-0.15939	-0.07969	0.067215
407	3.6169	-0.076029	-0.011521	0.16694	-0.11809	-0.26104	0.21441	-0.096205	-0.25635	0.23759	-0.046816	-0.15316	-0.008669	-0.046816	0.031938	-0.008669	0	0	0	-0.13657	0.031196	0.058472	-0.10222	0.027615	0.17263	-0.15939	-0.079656	0.067233
408	3.6258	-0.07603	-0.011485	0.16697	-0.11832	-0.26091	0.21456	-0.096432	-0.25622	0.23774	-0.046816	-0.15316	-0.008669	-0.046816	0.031938	-0.008669	0	0	0	-0.13656	0.031227	0.058473	-0.10221	0.027658	0.17263	-0.1594	-0.079621	0.067249
409	3.6347	-0.076033	-0.011448	0.16699	-0.11854	-0.26077	0.2147	-0.096661	-0.25608	0.23789	-0.046816	-0.15316	-0.008669	-0.046816	0.031938	-0.008669	0	0	0	-0.13655	0.031259	0.058473	-0.1022	0.0277	0.17263	-0.1594	-0.079585	0.067264
410	3.6437	-0.076038	-0.01141	0.16701	-0.11877	-0.26063	0.21486	-0.096893	-0.25595	0.23805	-0.046816	-0.15316	-0.008669	-0.046816	0.031938	-0.008669	0	0	0	-0.13654	0.031291	0.058471	-0.1022	0.027743	0.17263	-0.15941	-0.079548	0.067277
411	3.6526	-0.076046	-0.01137	0.16703	-0.119	-0.26049	0.21501	-0.097127	-0.25581	0.2382	-0.046816	-0.15316	-0.008669	-0.046816	0.031938	-0.008669	0	0	0	-0.13653	0.031324	0.058467	-0.10219	0.027787	0.17263	-0.15942	-0.07951	0.067289
412	3.6615	-0.076056	-0.01133	0.16705	-0.11923	-0.26035	0.21516	-0.097364	-0.25567	0.23836	-0.046816	-0.15316	-0.008669	-0.046816	0.031938	-0.008669	0	0	0	-0.13652	0.031357	0.058462	-0.10219	0.027831	0.17263	-0.15943	-0.079471	0.067299
413	3.6704	-0.076068	-0.011289	0.16706	-0.11947	-0.2602	0.21531	-0.097603	-0.25554	0.23851	-0.046816	-0.15316	-0.008669	-0.046816	0.031938	-0.008669	0	0	0	-0.13651	0.031392	0.058456	-0.10218	0.027875	0.17262	-0.15944	-0.079431	0.067307
414	3.6793	-0.076083	-0.011247	0.16708	-0.11971	-0.26006	0.21546	-0.097844	-0.25539	0.23867	-0.046816	-0.15316	-0.008669	-0.046816	0.031938	-0.008669	0	0	0	-0.13649	0.031427	0.058448	-0.10218	0.027919	0.17262	-0.15945	-0.079391	0.067314
415	3.6882	-0.0761	-0.011204	0.1671	-0.11994	-0.25991	0.21561	-0.098087	-0.25525	0.23883	-0.046816	-0.15316	-0.008669	-0.046816	0.031938	-0.008669	0	0	0	-0.13648	0.031463	0.058438	-0.10218	0.027964	0.17261	-0.15946	-0.07935	0.06732
416	3.6971	-0.076119	-0.01116	0.16711	-0.12018	-0.25977	0.21577	-0.098333	-0.25511	0.23899	-0.046816	-0.15316	-0.008669	-0.046816	0.031938	-0.008669	0	0	0	-0.13647	0.031499	0.058427	-0.10218	0.028009	0.1726	-0.15947	-0.079308	0.067324
417	3.706	-0.076141	-0.011116	0.16713	-0.12043	-0.25962	0.21592	-0.09858	-0.25496	0.23914	-0.046816	-0.15316	-0.008669	-0.046816	0.031938	-0.008669	0	0	0	-0.13646	0.031536	0.058415	-0.10218	0.028054	0.1726	-0.15949	-0.079265	0.067327
418	3.7149	-0.076164	-0.01107	0.16714	-0.12067	-0.25947	0.21607	-0.09883	-0.25482	0.23931	-0.046816	-0.15316	-0.008669	-0.046816	0.031938	-0.008669	0	0	0	-0.13645	0.031573	0.058401	-0.10219	0.028099	0.17259	-0.1595	-0.079222	0.067328
419	3.7238	-0.076189	-0.011024	0.16715	-0.12092	-0.25931	0.21623	-0.099082	-0.25467	0.23947	-0.046816	-0.15316	-0.008669	-0.046816	0.031938	-0.008669	0	0	0	-0.13644	0.031612	0.058386	-0.10219	0.028145	0.17258	-0.15952	-0.079177	0.067327
420	3.7327	-0.076217	-0.010977	0.16716	-0.12116	-0.25916	0.21638	-0.099336	-0.25452	0.23963	-0.046816	-0.15316	-0.008669	-0.046816	0.031938	-0.008669	0	0	0	-0.13643	0.03165	0.05837	-0.1022	0.028191	0.17256	-0.15953	-0.079132	0.067326
421	3.7416	-0.076246	-0.01093	0.16717	-0.12141	-0.25901	0.21654	-0.099591	-0.25437	0.23979	-0.046816	-0.15316	-0.008669	-0.046816	0.031938	-0.008669	0	0	0	-0.13643	0.03169	0.058352	-0.1022	0.028237	0.17255	-0.15955	-0.079087	0.067322
422	3.7506	-0.076277	-0.010881	0.16718	-0.12166	-0.25885	0.21669	-0.099849	-0.25422	0.23996	-0.046816	-0.15316	-0.008669	-0.046816	0.031938	-0.008669	0	0	0	-0.13642	0.031729	0.058334	-0.10221	0.028284	0.17254	-0.15957	-0.079041	0.067318
